<svg width="25" height="37" viewBox="0 0 25 37" fill="none" xmlns="http://www.w3.org/2000/svg">
<g clip-path="url(#clip0_1006_17)">
<circle cx="12.5" cy="12.5" r="6.5" fill="#333333"/>
<path d="M18.75 12.3332C18.75 10.6309 18.1396 9.17755 16.9189 7.97311C15.6982 6.76868 14.2253 6.16646 12.5 6.16646C10.7747 6.16646 9.30176 6.76868 8.08105 7.97311C6.86035 9.17755 6.25 10.6309 6.25 12.3332C6.25 14.0354 6.86035 15.4888 8.08105 16.6932C9.30176 17.8977 10.7747 18.4999 12.5 18.4999C14.2253 18.4999 15.6982 17.8977 16.9189 16.6932C18.1396 15.4888 18.75 14.0354 18.75 12.3332ZM25 12.3332C25 14.0836 24.7314 15.5209 24.1943 16.645L15.3076 35.2897C15.0472 35.8197 14.6606 36.2372 14.1479 36.5423C13.6353 36.8474 13.0859 37 12.5 37C11.9141 37 11.3647 36.8474 10.8521 36.5423C10.3394 36.2372 9.96094 35.8197 9.7168 35.2897L0.805664 16.645C0.268555 15.5209 0 14.0836 0 12.3332C0 8.92863 1.2207 6.02193 3.66211 3.61306C6.10352 1.20419 9.04948 -0.000247955 12.5 -0.000247955C15.9505 -0.000247955 18.8965 1.20419 21.3379 3.61306C23.7793 6.02193 25 8.92863 25 12.3332Z" fill="#FF4D4D"/>
</g>
<defs>
<clipPath id="clip0_1006_17">
<rect width="25" height="37" fill="white"/>
</clipPath>
</defs>
</svg>
